<svg xmlns="http://www.w3.org/2000/svg" width="900" height="520" viewBox="0 0 900 520">
<rect width="100%" height="100%" fill="#ffffff"/>
<text x="95" y="35" font-family="Arial" font-size="22" font-weight="700" fill="#263238">Media nominal trimestral del ingreso corriente del hogar</text>
<text x="95" y="58" font-family="Arial" font-size="13" fill="#546e7a">Puntos ponderados e IC95 t-JKn aproximado</text>
<line x1="95" x2="865" y1="435" y2="435" stroke="#455a64" stroke-width="1"/>
<line x1="95" x2="95" y1="70" y2="435" stroke="#455a64" stroke-width="1"/>
<line x1="95" x2="865" y1="435.00" y2="435.00" stroke="#eceff1" stroke-width="1"/>
<text x="85" y="439.00" text-anchor="end" font-family="Arial" font-size="11" fill="#607d8b">45,348</text>
<line x1="95" x2="865" y1="343.75" y2="343.75" stroke="#eceff1" stroke-width="1"/>
<text x="85" y="347.75" text-anchor="end" font-family="Arial" font-size="11" fill="#607d8b">54,677</text>
<line x1="95" x2="865" y1="252.50" y2="252.50" stroke="#eceff1" stroke-width="1"/>
<text x="85" y="256.50" text-anchor="end" font-family="Arial" font-size="11" fill="#607d8b">64,005</text>
<line x1="95" x2="865" y1="161.25" y2="161.25" stroke="#eceff1" stroke-width="1"/>
<text x="85" y="165.25" text-anchor="end" font-family="Arial" font-size="11" fill="#607d8b">73,334</text>
<line x1="95" x2="865" y1="70.00" y2="70.00" stroke="#eceff1" stroke-width="1"/>
<text x="85" y="74.00" text-anchor="end" font-family="Arial" font-size="11" fill="#607d8b">82,662</text>
<line x1="95.00" x2="95.00" y1="382.23" y2="399.68" stroke="#006d77" stroke-width="2"/>
<line x1="88.00" x2="102.00" y1="382.23" y2="382.23" stroke="#006d77" stroke-width="2"/>
<line x1="88.00" x2="102.00" y1="399.68" y2="399.68" stroke="#006d77" stroke-width="2"/>
<circle cx="95.00" cy="390.95" r="5.5" fill="#006d77"/>
<text x="95.00" y="459" text-anchor="middle" font-family="Arial" font-size="12" fill="#37474f">2018</text>
<line x1="351.67" x2="351.67" y1="378.79" y2="394.15" stroke="#006d77" stroke-width="2"/>
<line x1="344.67" x2="358.67" y1="378.79" y2="378.79" stroke="#006d77" stroke-width="2"/>
<line x1="344.67" x2="358.67" y1="394.15" y2="394.15" stroke="#006d77" stroke-width="2"/>
<circle cx="351.67" cy="386.47" r="5.5" fill="#006d77"/>
<text x="351.67" y="459" text-anchor="middle" font-family="Arial" font-size="12" fill="#37474f">2020</text>
<line x1="608.33" x2="608.33" y1="247.08" y2="263.97" stroke="#006d77" stroke-width="2"/>
<line x1="601.33" x2="615.33" y1="247.08" y2="247.08" stroke="#006d77" stroke-width="2"/>
<line x1="601.33" x2="615.33" y1="263.97" y2="263.97" stroke="#006d77" stroke-width="2"/>
<circle cx="608.33" cy="255.53" r="5.5" fill="#006d77"/>
<text x="608.33" y="459" text-anchor="middle" font-family="Arial" font-size="12" fill="#37474f">2022</text>
<line x1="865.00" x2="865.00" y1="105.32" y2="128.55" stroke="#006d77" stroke-width="2"/>
<line x1="858.00" x2="872.00" y1="105.32" y2="105.32" stroke="#006d77" stroke-width="2"/>
<line x1="858.00" x2="872.00" y1="128.55" y2="128.55" stroke="#006d77" stroke-width="2"/>
<circle cx="865.00" cy="116.93" r="5.5" fill="#006d77"/>
<text x="865.00" y="459" text-anchor="middle" font-family="Arial" font-size="12" fill="#37474f">2024</text>
<polyline fill="none" stroke="#006d77" stroke-width="2" points="95.00,390.95 351.67,386.47 608.33,255.53 865.00,116.93"/>
<text x="18" y="252.50" transform="rotate(-90 18,252.50)" text-anchor="middle" font-family="Arial" font-size="13" fill="#37474f">Pesos nominales</text>
</svg>